<?xml version="1.0" encoding="utf-8"?>
<!-- Generator: Adobe Illustrator 16.0.0, SVG Export Plug-In . SVG Version: 6.00 Build 0)  -->
<!DOCTYPE svg PUBLIC "-//W3C//DTD SVG 1.1//EN" "http://www.w3.org/Graphics/SVG/1.1/DTD/svg11.dtd">
<svg version="1.1" id="Capa_1" xmlns="http://www.w3.org/2000/svg" xmlns:xlink="http://www.w3.org/1999/xlink" x="0px" y="0px"
	 width="10577px" height="988px" viewBox="0 0 10577 988" enable-background="new 0 0 10577 988" xml:space="preserve">
<image overflow="visible" enable-background="new    " width="10000" height="934" xlink:href="11AB9DFD.png"  transform="matrix(1.4356 0 0 1.119 0 -2.441406e-004)">
</image>
<image overflow="visible" enable-background="new    " width="9465" height="901" xlink:href="11AB9DFF.png"  transform="matrix(1 0 0 1 130 95.9998)">
</image>
<image overflow="visible" enable-background="new    " width="862" height="780" xlink:href="11AB9DFA.png"  transform="matrix(1.0046 0 0 1.0103 19448.5371 214.5486)">
</image>
<image overflow="visible" width="718" height="479" xlink:href="mongodb.png"  transform="matrix(2.079 0 0 2.079 9547.0098 35.5745)">
</image>
<image overflow="visible" width="1400" height="995" xlink:href="nextjs.png"  transform="matrix(0.9999 0 0 0.9999 10715 49.0618)">
</image>
<image overflow="visible" width="1400" height="995" xlink:href="typescript.png"  transform="matrix(1.2754 0 0 1.2754 11654.9316 -140.5364)">
</image>
<image overflow="visible" width="1400" height="995" xlink:href="nodejs.png"  transform="matrix(0.9999 0 0 0.9999 13011.0859 13.5618)">
</image>
</svg>
